#!OML:ASF I:\golf\golf\golf 2\Subject 1\2002-09-07\Subject1.ASF
:FULLY-SPECIFIED
:DEGREES
407
root -4.90081 18.0905 -3.7218 -166.005 -4.73474 -173.674
lowerback -12.4694 15.1203 11.4154
upperback -15.3206 16.5016 -0.363549
thorax -6.66312 5.99586 -4.64074
lowerneck -11.9156 -18.0581 -4.79208
upperneck 14.3638 -24.5574 2.45144
head 7.18665 -12.0142 -1.03991
rclavicle 6.13251e-014 5.96354e-014
rhumerus 101.535 23.437 -57.1239
rradius 68.0649
rwrist -1.40415
rhand -47.7541 32.3977
rfingers 7.12502
rthumb -20.4321 3.45271
lclavicle 6.13251e-014 5.96354e-014
lhumerus 68.3002 21.8052 46.7319
lradius 66.3593
lwrist 19.7267
lhand -21.7054 7.84334
lfingers 7.12502
lthumb -175.307 -142.229
rfemur 16.2268 -7.44265 25.0028
rtibia 9.61564
rfoot 38.4356 -33.0217
rtoes 26.8146
lfemur -27.6958 -17.8954 -10.935
ltibia 26.5917
lfoot 24.7043 -44.9934
ltoes 49.4801
408
root -4.89206 18.0967 -3.70702 -165.833 -4.56828 -173.694
lowerback -12.4644 15.049 11.401
upperback -15.2198 16.4183 -0.285876
thorax -6.58792 5.97165 -4.56053
lowerneck -12.1274 -17.927 -4.83811
upperneck 14.3458 -24.3125 2.34625
head 7.19906 -11.8954 -1.05317
rclavicle -3.77691e-015 1.33186e-014
rhumerus 101.254 23.5474 -57.1782
rradius 67.4326
rwrist -1.76338
rhand -47.6513 32.1298
rfingers 7.12502
rthumb -20.3333 3.17421
lclavicle -3.77691e-015 1.33186e-014
lhumerus 68.137 21.4637 46.313
lradius 65.5538
lwrist 20.0505
lhand -21.2424 7.93196
lfingers 7.12502
lthumb -174.86 -142.15
rfemur 16.1225 -7.41215 24.9936
rtibia 9.46025
rfoot 38.5613 -32.8173
rtoes 26.5188
lfemur -27.8474 -17.6604 -10.9108
ltibia 26.4788
lfoot 24.9193 -44.9894
ltoes 49.554
409
root -4.88562 18.1045 -3.6921 -165.682 -4.42633 -173.749
lowerback -12.4226 14.99 11.4278
upperback -15.1304 16.36 -0.281165
thorax -6.50932 5.95607 -4.57781
lowerneck -12.2973 -17.8154 -4.70881
upperneck 14.2148 -24.1103 2.20112
head 7.14275 -11.7981 -1.08837
rclavicle 8.39865e-014 5.88403e-014
rhumerus 100.938 23.533 -57.23
rradius 66.7895
rwrist -2.24606
rhand -47.398 31.9504
rfingers 7.12502
rthumb -20.0898 2.96911
lclavicle 8.39865e-014 5.88403e-014
lhumerus 68.1004 20.9735 45.9976
lradius 64.7572
lwrist 20.4338
lhand -20.8117 7.89108
lfingers 7.12502
lthumb -174.444 -142.202
rfemur 16.0375 -7.4127 24.9422
rtibia 9.26419
rfoot 38.4832 -32.9623
rtoes 26.5791
lfemur -27.9916 -17.6153 -10.8837
ltibia 26.3838
lfoot 24.8715 -44.9055
ltoes 49.5205
410
root -4.87888 18.1083 -3.67911 -165.671 -4.27335 -173.673
lowerback -12.3172 14.9085 11.5988
upperback -15.0117 16.2762 -0.227221
thorax -6.41528 5.9215 -4.62588
lowerneck -12.3996 -17.6477 -4.40494
upperneck 14.0133 -23.8396 1.94486
head 7.01606 -11.6746 -1.15251
rclavicle -3.17062e-014 -5.4467e-014
rhumerus 100.686 23.6874 -57.3887
rradius 66.0787
rwrist -2.61903
rhand -47.2663 31.8346
rfingers 7.12502
rthumb -19.9633 2.84003
lclavicle -3.17062e-014 -5.4467e-014
lhumerus 67.9516 20.5403 45.4147
lradius 64.031
lwrist 21.1451
lhand -20.4134 7.93279
lfingers 7.12502
lthumb -174.059 -142.17
rfemur 16.0629 -7.38854 25.0225
rtibia 9.14407
rfoot 37.938 -33.5664
rtoes 27.6838
lfemur -27.9995 -17.5609 -10.7611
ltibia 26.2968
lfoot 24.8703 -44.7485
ltoes 49.5118
411
root -4.87139 18.1119 -3.66749 -165.67 -4.10198 -173.554
lowerback -12.2201 14.8133 11.7527
upperback -14.8981 16.1693 -0.132055
thorax -6.34329 5.8744 -4.62739
lowerneck -12.4883 -17.4574 -4.16681
upperneck 13.8652 -23.5426 1.71761
head 6.91724 -11.5383 -1.20254
rclavicle -4.96962e-016 -5.48646e-014
rhumerus 100.246 23.6115 -57.5684
rradius 65.5963
rwrist -3.24905
rhand -47.1621 31.7166
rfingers 7.12502
rthumb -19.8631 2.71164
lclavicle -4.96962e-016 -5.48646e-014
lhumerus 67.7519 20.1242 44.7889
lradius 63.322
lwrist 22.0572
lhand -20.1487 8.01375
lfingers 7.12502
lthumb -173.804 -142.097
rfemur 16.0759 -7.33642 25.1379
rtibia 9.08421
rfoot 37.5769 -33.92
rtoes 28.2528
lfemur -27.9926 -17.3616 -10.6409
ltibia 26.2173
lfoot 25.0392 -44.704
ltoes 49.5255
412
root -4.86228 18.1178 -3.65357 -165.584 -3.87485 -173.527
lowerback -12.1387 14.7656 11.757
upperback -14.8197 16.1302 -0.0677517
thorax -6.31943 5.86632 -4.58037
lowerneck -12.5504 -17.3182 -4.24013
upperneck 13.8412 -23.3259 1.72581
head 6.92391 -11.4322 -1.17231
rclavicle -3.16068e-014 -5.88403e-014
rhumerus 99.7627 23.59 -57.7384
rradius 65.0333
rwrist -3.73773
rhand -46.75 31.7249
rfingers 7.12502
rthumb -19.4669 2.67944
lclavicle -3.16068e-014 -5.88403e-014
lhumerus 67.7252 19.5915 44.5767
lradius 62.533
lwrist 22.83
lhand -19.6787 7.8655
lfingers 7.12502
lthumb -173.35 -142.259
rfemur 15.9781 -7.24485 25.1539
rtibia 9.05112
rfoot 37.5362 -33.8971
rtoes 27.8477
lfemur -28.0481 -17.08 -10.6048
ltibia 26.1439
lfoot 24.8965 -44.9191
ltoes 49.2967
413
root -4.85295 18.122 -3.63557 -165.497 -3.59611 -173.608
lowerback -12.0174 14.7255 11.6558
upperback -14.7167 16.1262 -0.0170166
thorax -6.30343 5.89021 -4.49945
lowerneck -12.7925 -17.1994 -4.5353
upperneck 13.9989 -23.1267 1.86062
head 7.06112 -11.3237 -1.11424
rclavicle -2.94201e-014 -4.09496e-014
rhumerus 99.3014 23.5746 -57.7773
rradius 64.4826
rwrist -4.19852
rhand -46.337 31.7707
rfingers 7.12502
rthumb -19.0698 2.68557
lclavicle -2.94201e-014 -4.09496e-014
lhumerus 67.7184 19.032 44.461
lradius 61.7216
lwrist 23.3111
lhand -19.077 7.7428
lfingers 7.12502
lthumb -172.769 -142.401
rfemur 15.8237 -7.12997 25.0483
rtibia 9.17034
rfoot 36.8151 -34.568
rtoes 28.9295
lfemur -28.0787 -16.8485 -10.6736
ltibia 26.0502
lfoot 24.7836 -44.9511
ltoes 49.2055
